<svg width="16" height="26" viewBox="0 0 16 26" fill="none" xmlns="http://www.w3.org/2000/svg">
<path d="M7.78027 25.5C3.63727 25.5 0.280273 22.0031 0.280273 17.6875C0.280273 13.3719 7.78027 0.5 7.78027 0.5C7.78027 0.5 15.2803 13.3719 15.2803 17.6875C15.2803 22.0031 11.9233 25.5 7.78027 25.5ZM12.1963 16.9859C11.8093 19.1625 9.98227 20.8125 7.78027 20.8125C5.57827 20.8125 3.75127 19.1625 3.36427 16.9859C3.31327 17.2469 3.28027 17.4891 3.28027 17.6875C3.28027 20.2766 5.29477 22.375 7.78027 22.375C10.2658 22.375 12.2803 20.2766 12.2803 17.6875C12.2803 17.4891 12.2473 17.2469 12.1963 16.9859Z" fill="#6C4DFC"/>
</svg>
