<svg width="25" height="25" viewBox="0 0 25 25" fill="none" xmlns="http://www.w3.org/2000/svg">
<path d="M15.6248 11.4583C13.6144 11.4583 11.979 13.0937 11.979 15.1041C11.979 15.3916 12.2123 15.625 12.4998 15.625C12.7873 15.625 13.0207 15.3916 13.0207 15.1041C13.0207 13.6687 14.1894 12.5 15.6248 12.5C17.0603 12.5 18.229 13.6687 18.229 15.1041C18.229 15.3916 18.4623 15.625 18.7498 15.625C19.0373 15.625 19.2707 15.3916 19.2707 15.1041C19.2707 13.0937 17.6353 11.4583 15.6248 11.4583Z" fill="#E9982D"/>
<path d="M16.146 15.7844V14.5833C16.146 14.2958 15.9127 14.0625 15.6252 14.0625C15.3377 14.0625 15.1043 14.2958 15.1043 14.5833V15.7844C14.7981 15.9656 14.5835 16.2854 14.5835 16.6667C14.5835 17.2417 15.0502 17.7083 15.6252 17.7083C16.2002 17.7083 16.6668 17.2417 16.6668 16.6667C16.6668 16.2854 16.4522 15.9656 16.146 15.7844Z" fill="#E9982D"/>
<path d="M17.1366 8.76146C15.5418 5.26563 12.745 2.34375 11.4585 2.34375C9.83662 2.34375 4.42725 8.13021 4.42725 14.5833C4.42725 18.4604 7.58141 21.6146 11.4585 21.6146C11.6095 21.6146 11.7606 21.5969 11.9127 21.5854C12.9918 22.2604 14.2616 22.6562 15.6252 22.6562C19.5022 22.6562 22.6564 19.5021 22.6564 15.625C22.6564 12.2667 20.2887 9.45521 17.1366 8.76146ZM5.98975 14.5833C5.98975 8.94479 10.4127 4.40937 11.4585 3.92917C12.0772 4.21563 13.9397 5.97188 15.3262 8.60938C11.5887 8.76771 8.59391 11.849 8.59391 15.625C8.59391 17.2031 9.12308 18.6562 10.0033 19.8302C7.69704 19.1885 5.98975 17.0917 5.98975 14.5833ZM15.6252 21.0938C12.6095 21.0938 10.1564 18.6406 10.1564 15.625C10.1564 12.6094 12.6095 10.1562 15.6252 10.1562C18.6408 10.1562 21.0939 12.6094 21.0939 15.625C21.0939 18.6406 18.6408 21.0938 15.6252 21.0938Z" fill="#6C4DFC"/>
</svg>
