<svg width="25" height="28" viewBox="0 0 25 28" fill="none" xmlns="http://www.w3.org/2000/svg">
<path d="M0.778752 16.0657C0.269359 16.9333 0 17.924 0 18.9308C0 22.094 2.61691 24.6673 5.83336 24.6673C9.04981 24.6673 11.6665 22.094 11.6665 18.9308C11.6665 17.924 11.3974 16.9333 10.888 16.0657L5.83336 8.03073C5.81729 8.05658 6.18657 7.46954 0.778752 16.0657ZM9.99996 18.9308C9.99996 21.1901 8.13095 23.0284 5.83336 23.0284C3.53577 23.0284 1.66677 21.1901 1.66677 18.9308C1.66677 18.2154 1.85662 17.512 2.21613 16.8954L5.83336 11.146L9.45059 16.8954C9.8101 17.512 9.99996 18.2154 9.99996 18.9308ZM24.2212 19.3436L19.1666 11.3088C19.1503 11.3344 19.5196 10.7476 14.112 19.3436C13.6026 20.2113 13.3333 21.2021 13.3333 22.2089C13.3333 25.4021 15.9502 28 19.1666 28C22.3831 28 25 25.4021 25 22.2089C25 21.2021 24.7306 20.2115 24.2212 19.3436ZM19.1666 26.3611C16.869 26.3611 15 24.4983 15 22.2089C15 21.4935 15.1899 20.7898 15.5494 20.1735L19.1666 14.4238L22.7839 20.1735C23.1434 20.7898 23.3332 21.4935 23.3332 22.2089C23.3332 24.4983 21.464 26.3611 19.1666 26.3611ZM14.1668 0C14.1222 0.0726318 14.4333 -0.435791 10.5556 5.9039C10.1922 6.5217 9.99996 7.229 9.99996 7.94934C9.99996 10.2086 11.8692 12.0468 14.1666 12.0468C16.4641 12.0468 18.3334 10.2086 18.3334 7.94934C18.3334 7.22858 18.1409 6.52084 17.7766 5.90262L14.1668 0ZM14.1666 10.4079C12.7883 10.4079 11.6667 9.30499 11.6667 7.94934C11.6667 7.51889 11.7801 7.09741 11.995 6.73019L14.1666 3.17978L16.3377 6.72955C16.553 7.0972 16.6666 7.51889 16.6666 7.94934C16.6666 9.30499 15.5451 10.4079 14.1666 10.4079Z" fill="#6C4DFC"/>
</svg>
