<svg width="610" height="26" viewBox="0 0 610 26" fill="none" xmlns="http://www.w3.org/2000/svg">
<path d="M6.18016 0.257413C9.71212 0.212142 14.2267 0.730354 17.6292 1.27399C18.6962 1.44346 18.1209 1.8284 18.8565 1.9649C20.2901 2.23135 21.6514 2.1211 23.0638 2.42117C23.5299 2.52259 22.8945 3.14965 23.3846 3.24069C26.0761 3.73542 28.6504 3.75634 31.38 4.10221C33.4848 4.36909 35.5831 4.6236 37.6743 4.86477C49.3926 6.33836 60.1073 7.95543 71.6366 8.85217C75.0761 9.14824 79.1167 9.75404 82.9342 9.98416C84.0052 10.0496 85.1509 10.0852 86.1711 10.0675C86.7118 10.0583 86.4148 9.45581 86.5194 9.41153C88.1774 8.73451 87.5858 9.90156 88.6276 10.1001C92.7866 10.8839 97.4827 11.0755 101.522 10.9502C103.236 10.8947 101.544 9.68116 103.261 10.381C103.381 10.4283 102.927 11.0436 103.4 11.1219C104.479 11.2986 106.495 11.2329 107.334 11.3008C108.921 11.4345 109.197 11.4339 110.708 11.4724C112.772 11.5302 115.233 11.8889 117.456 11.7874C117.93 11.7638 117.315 11.1108 118.072 11.0152C118.832 10.92 120.833 11.0094 121.505 11.1721C122.178 11.335 121.882 11.8345 121.999 11.9522C122.971 12.9449 125.304 11.6314 125.605 11.6028C131.049 11.1213 135.7 11.96 140.806 12.0333C144.682 12.0871 148.832 11.894 152.52 11.9861C156.916 12.0987 160.638 12.5074 164.914 12.5284C165.364 12.5314 164.852 11.7668 165.4 11.7689C169.048 11.7845 172.685 11.8737 176.306 12.1122C178.526 12.2574 180.708 12.4535 182.893 12.7157C183.485 12.7865 182.7 13.4242 183.288 13.5345C186.83 14.191 192.446 15.7094 194.663 12.906C197.075 13.1092 199.993 13.3332 202.129 13.9867C203.519 14.4077 202.132 15.0841 203.851 14.8322C204.241 14.7761 203.756 14.1281 204.342 14.0917C206.785 13.9383 209.428 14.2184 211.847 13.9513C212.33 13.8953 212.212 13.3257 212.351 13.2271C213.534 12.4301 215.429 13.8378 215.867 13.9461C219.078 14.7541 221.417 14.5043 224.429 14.5702C225.122 14.5856 224.313 13.8121 224.983 13.7995C228.458 13.7441 232.07 13.8553 235.487 14.2303C236.246 14.3155 235.546 14.956 235.901 15.0298C237.46 15.3469 237.847 14.1267 239.394 14.4064C239.709 14.4637 239.526 15.0167 239.583 15.0782C240.474 16.0434 241.293 14.6955 241.533 14.6678C243.677 14.4052 245.108 15.0028 246.898 15.3416C247.648 15.4935 248.442 15.5928 249.346 15.5372C249.696 15.5143 248.912 14.8067 249.896 14.7853C256.41 14.6381 263.294 14.8673 269.72 15.4566C270.724 15.5473 270.006 16.0716 270.07 16.1369C271.077 17.1569 271.745 15.7987 272.07 15.7488C274.658 15.3904 277.041 16.5405 278.803 14.9255C289.71 15.5258 300.575 14.6386 311.37 16.1042C311.508 16.1212 311.261 16.7912 311.535 16.8222C314.837 17.2024 314.214 16.1599 316.392 14.888C316.941 14.5686 318.615 16.1083 318.763 16.2211C319.303 16.6371 318.742 17.6338 318.923 17.7144C320.419 18.3474 320.184 15.0495 322.196 15.0498C322.259 15.0553 321.994 15.6621 322.163 15.7226C322.688 15.9124 323.21 15.6715 323.725 15.8807C324.903 16.3648 325.323 17.9675 327.125 17.0355C327.352 16.9146 327.005 15.0439 328.805 15.1327C329.523 15.1698 332.703 15.1382 333.594 15.2593C334.484 15.3804 333.873 15.9832 333.936 16.0093C336.334 16.8063 335.425 17.1367 336.627 18.3167C337.828 19.4921 337.494 16.6881 337.984 16.375C338.473 16.0628 340.233 16.72 340.666 16.9484C341.098 17.177 340.559 17.5602 340.943 17.6895C343.49 18.5341 342.06 16.2972 342.899 15.8517C344.872 14.7969 346.419 16.8754 348.229 17.0777C348.719 17.1324 348.319 16.6591 348.755 16.6144C350.479 16.4438 351.521 17.0917 353.489 16.4947C353.811 16.3974 355.397 15.1453 356.423 16.0615C356.568 16.1937 356.156 16.7124 356.89 16.8276C357.996 17.0004 359.982 17.1109 361.16 16.9358C362.031 16.8063 361.032 15.954 362.127 16.2175C362.613 16.3352 361.713 16.8361 362.627 17.0155C363.543 17.1949 365.885 17.1688 366.768 17.1499C367.652 17.1306 367.167 16.4838 367.238 16.44C367.668 16.1893 369.366 15.8736 369.52 15.874C377.101 15.7793 384.091 16.8519 391.474 16.4636C392.059 16.434 391.667 15.7524 391.756 15.7408C393.752 15.4472 392.186 17.2691 393.578 17.8717C393.371 16.4864 394.195 16.7343 395.576 16.5767C396.24 16.4996 395.876 15.9644 395.937 15.9092C396.933 15.0899 397.646 16.1398 397.825 16.3544C398.494 17.1439 399.208 16.2046 399.657 16.7322C400.106 17.2558 399.083 18.0397 400.411 18.0237C400.78 17.5259 399.792 16.2338 400.796 16.0191C404.66 15.2073 411.804 16.1856 414.886 16.2705C417.395 16.3398 418.535 16.2875 419.79 16.3543C420.098 16.3697 420.414 16.3915 420.758 16.4227C424.022 16.7202 422.817 15.7679 424.801 15.309C426.823 14.8483 425.866 17.2249 426.162 17.7308C426.456 18.2363 426.765 17.7095 427.124 17.9851C427.481 18.2607 426.718 18.6152 427.552 18.7109C428.398 18.8066 430.601 17.8745 430.92 17.3379C431.534 16.2024 430.493 15.0338 432.705 15.4191C432.831 15.442 432.43 16.0701 432.915 16.1262C436.722 16.5517 440.789 16.5106 444.584 16.8535C445.123 16.9013 444.657 17.6038 444.97 17.6394C448.211 18.011 447.026 16.869 448.727 15.5318C448.366 17.2665 449.398 18.2998 451.819 18.2468C453.261 18.2153 452.992 17.4682 453.935 16.9108C454.218 16.7428 455.269 17.2306 455.444 16.8708C456.027 15.6942 455.009 14.4276 457.522 14.8684C457.634 14.8895 457.299 15.5344 457.685 15.5609C460.168 15.7347 460.383 14.5153 463.046 14.2757C465.083 14.0898 468.855 14.6839 471.186 14.7029C471.209 16.6445 473.467 16.1014 474.282 14.724C475.845 14.7071 477.445 14.5541 478.97 14.6618C479.484 14.6988 479.177 15.2769 479.245 15.3343C480.277 16.2351 480.862 14.9006 481.202 14.8315C484.754 14.1453 487.732 14.9583 491.092 13.7784C491.204 13.7364 491.33 12.3781 492.308 13.3007C492.371 13.3645 491.283 14.0501 492.892 13.9926C494.509 13.9349 497.572 14.4495 499.775 13.6649C500.294 13.4772 501.594 12.2864 502.753 13.0589C502.909 13.1639 502.776 13.5612 503.004 13.7603C503.743 14.3935 503.993 13.0092 504.896 14.1035C505.787 15.199 507.502 15.9409 509.706 14.9826C509.771 14.9548 510.239 13.8387 510.947 13.8063C512.075 13.7554 513.708 13.8706 514.882 13.7902C515.449 13.7509 515.044 13.1045 515.142 13.086C515.632 13.0073 516.101 12.9468 516.555 12.9013L516.542 12.9022C519.641 12.5392 522.194 12.8506 525.762 12.8583C526.511 12.861 528.611 11.8209 530.101 12.4622C531.734 13.1647 530.285 16.5381 533.888 15.5604C535.339 15.17 536.997 10.9031 539.755 12.9359C544.87 12.1523 549.673 13.0506 554.797 12.06C555.03 12.0158 555.7 10.8198 556.255 10.8114C557.071 10.8014 557.525 11.3267 558.111 11.3367C560.535 11.3939 562.734 10.8288 565.072 10.7907C565.949 10.7752 565.684 11.352 566.736 11.3324C567.794 11.3113 568.445 10.5367 569.912 10.8179C570.991 11.0338 572.182 12.4871 573.619 12.5766C573.585 11.0795 574.579 11.0545 576.293 10.5363C576.635 10.4347 576.225 9.94257 576.384 9.86775C577.022 9.5522 577.643 9.93619 578.228 9.59278C578.367 9.5104 578.329 9.00106 578.437 8.90505C578.438 8.90333 578.44 8.90162 578.442 8.89991C578.455 8.89839 578.495 8.89648 578.508 8.89557C579.528 8.10694 581.289 9.19625 581.588 9.388C582.739 10.1147 583.256 9.43829 584.126 9.71787C585.001 9.99816 583.715 10.3997 584.727 10.5597C586.828 10.8909 589.513 10.7726 591.639 10.7767C592.489 10.7751 591.903 10.0987 592.025 10.0827C593.78 9.89392 595.557 10.6091 596.525 9.24659C597.758 12.7522 597.582 8.90023 600.095 9.59586C600.293 9.65221 600.549 11.3118 599.791 11.5576C599.034 11.8032 597.882 11.288 596.832 11.6729C596.583 11.763 595.167 13.3264 594.972 13.4221C593.456 14.1682 593.223 11.6897 593.141 11.5539C592.213 10.0899 590.483 11.7833 590.029 11.9048C587.938 12.4595 586.15 12.139 584.413 12.5551C583.272 12.8252 583.205 14.453 582.31 14.4271C580.766 14.3843 579.731 13.7653 578.704 13.4771L578.848 13.4677C577.88 13.2473 576.873 13.2958 575.591 14.3268C574.987 14.7863 575.738 16.5222 573.437 15.2644C573.294 15.1855 571.603 14.0042 570.694 14.8619C570.585 14.9699 570.616 15.4866 570.465 15.5383C569.441 15.8747 568.732 15.4982 567.597 15.7524C566.484 16.0054 565.14 16.3644 563.829 16.2494C563.062 16.1799 562 15.2626 561.626 15.0431C560.554 14.4106 559.471 15.5752 558.788 14.7808C558.095 13.9828 559.323 12.6701 557.578 12.2116C557.574 13.5581 557.49 14.9436 557.447 16.2994C553.683 16.4176 549.962 16.1432 546.198 16.3734C545.731 16.4034 546.242 17.104 545.742 17.1547C543.637 17.3656 541.766 16.9368 539.589 17.2478C537.903 17.4915 536.086 18.349 534.33 18.6342C533.168 17.1534 530.575 17.8163 528.663 17.7868C527.994 17.7769 528.014 17.3641 527.534 17.2581C525.71 16.8699 526.633 18.1776 526.156 18.4207C524.115 19.4619 523.741 16.3997 521.265 16.6416C521.137 16.6528 519.638 18.4016 519.432 18.5194C518.083 19.2844 519.16 17.9659 518.273 17.909C517.785 17.8778 517.343 17.8285 516.914 17.7917C516.899 17.7925 516.855 17.7962 516.841 17.7966C515.848 17.6941 514.906 17.6621 513.609 18.0843C513.078 18.2618 511.828 19.3719 510.71 18.6581C510.561 18.5647 510.601 18.0182 510.485 17.9946C508.407 17.6117 508.466 19.3173 507.342 19.9777C506.208 20.6391 504.305 19.5992 503.92 19.2873C502.892 18.4829 504.629 18.8596 504.671 18.7701C505.21 17.7035 503.916 17.9753 502.887 17.9635C502.604 16.3087 501.223 16.5095 501.836 17.9567C501.909 18.1143 502.667 17.903 502.887 17.9635C502.122 19.6631 500.581 19.9857 498.746 18.5792C497.875 17.9204 498.616 17.0306 496.166 17.5068C495.08 17.7194 495.585 18.8384 494.622 19.2177C492.442 20.0817 489.419 19.1981 487.144 19.5016C486.297 19.6131 487.164 20.1929 486.584 20.2908C485.1 20.5489 483.691 20.1548 482.196 20.4778C482.058 20.508 482.434 21.1481 481.956 21.1821C478.353 21.4511 475.189 21.1806 471.408 21.3313C469.612 21.4038 466.37 21.896 464.458 21.8912C461.208 21.8874 457.124 21.0567 454.366 21.3663C452.52 21.5667 452.961 22.2137 452.197 22.6837C450.734 23.5944 447.989 22.0999 447.649 21.8657C447.64 21.8581 449.178 21.666 448.348 21.3472C447.853 20.6534 447.666 21.8622 447.649 21.8657C447.433 21.7155 444.234 21.6364 443.657 21.7734C443.325 21.8491 443.524 22.4699 443.351 22.4976C439.131 23.1426 435.019 23.3687 430.73 23.1319C430.654 23.1203 430.759 22.42 430.58 22.4013C428.16 22.1213 426.561 22.9935 424.546 23.5208C422.631 24.0273 421.052 23.9012 419.838 22.8309C419.792 22.7886 419.747 22.7448 419.702 22.6994C418.235 22.8614 415.965 22.3464 414.738 22.0323C413.493 21.7184 413.319 23.0798 413.21 23.1074C409.715 23.9895 407.731 23.2216 404.171 23.1183C402.452 23.067 399.099 23.2796 397.235 23.4361C395.742 23.5622 394.913 23.2467 393.562 23.4557C393.38 23.4837 393.566 24.0887 393.511 24.1122C392.011 24.8426 392.727 23.3591 392.415 23.0958C391.276 22.1384 390.587 21.6288 388.678 22.0878C388.238 22.1929 386.952 24.3293 386.136 24.4566C385.073 24.6182 385.481 23.8527 384.387 24.0412C384.293 24.0566 384.315 24.528 383.639 24.5093C380.48 24.4286 377.067 24.1633 373.778 24.2182C373.334 24.2239 373.905 24.9704 373.263 24.9909C370.242 25.0865 366.917 25.0653 363.961 24.7203C363.231 24.633 363.688 24.1087 363.529 23.9535C362.548 23.0145 361.194 24.3833 360.965 24.4097C355.549 25.0746 351.425 23.8422 345.915 24.4349C345.613 24.4697 343.309 25.9363 342.279 24.6801C342.208 24.5965 341.189 23.3114 340.288 24.1907C340.232 24.2457 340.868 24.9074 339.759 24.8403C338.649 24.7734 336.87 25.2158 335.346 24.4887C334.864 24.2597 333.725 22.9773 332.287 23.9995C332.193 24.0709 329.972 26.3822 329.18 24.7871C329.052 24.5245 329.186 22.8368 327.471 23.7016C327.144 23.8693 327.738 24.246 326.875 24.4807C325.549 24.8426 323.794 24.3897 322.169 25.1405C321.885 25.2735 320.68 26.4182 319.708 25.548C319.556 25.4117 319.845 24.8485 319.333 24.785C316.896 24.4807 314.356 24.8551 311.879 24.4622C311.005 24.3242 311.453 23.4138 310.543 23.1686C309.636 22.9234 307.794 22.6862 306.836 23.101C305.88 23.5159 306.921 24.9693 305.491 25.0833C299.261 25.5779 293.138 24.7132 286.907 24.5711C285.989 24.5499 286.761 25.0716 285.393 25.0775C280.392 25.1022 271.74 25.5573 267.394 24.4327C263.939 23.5324 268.289 22.8797 265.655 22.5075C264.395 22.3299 262.955 24.0104 262.654 24.062C259.668 24.5864 257.509 23.8264 254.811 24.039C254.239 24.083 254.795 24.7706 254.309 24.8005C252.645 24.9086 250.997 24.5921 249.386 24.6363C248.682 24.6578 248.807 25.1812 248.166 25.1361C247.701 25.1051 247.256 25.0621 246.823 25.0033C245.775 24.8684 244.79 24.6504 243.762 24.3011C243.628 24.2553 244.543 23.6131 243.42 23.5794C241.547 23.526 239.313 23.0222 237.136 23.4984C236.5 23.6418 236.491 24.8361 235.132 23.9965C234.846 23.821 235.217 22.3915 233.62 23.6122C233.373 23.8155 230.652 25.4541 229.398 24.3598C229.082 24.0721 228.171 22.8863 227.42 23.0601C227.317 23.0881 227.717 23.7352 227.092 23.7889C224.879 23.9666 222.531 23.8609 220.263 24.0208C219.644 24.0644 220.55 24.7448 219.632 24.7887C217.136 24.9108 214.018 24.6755 211.579 24.4068C210.662 24.3061 211.311 23.7723 211.245 23.7108C210.198 22.711 209.574 24.0082 209.204 24.0749C207.027 24.4747 205.36 23.8073 203.353 23.9058C202.798 23.9311 203.17 24.5699 203.058 24.6221C201.903 25.13 202.793 24.034 202.068 23.8857C200.053 23.4669 197.794 23.4352 195.75 23.4392C194.999 23.4416 195.814 24.1987 195.141 24.1924C191.162 24.1685 187.028 23.9445 183.199 23.4205C182.47 23.3202 182.948 22.7761 182.799 22.6435C181.789 21.7167 180.189 22.8873 179.857 22.9936C178.235 23.4756 177.649 22.9642 176.206 23.0165C176.14 23.019 176.074 23.0214 176.007 23.0237C169.157 23.2764 160.689 22.8094 154.192 22.5058C145.652 22.111 139.026 21.4881 130.861 21.5004C130.342 21.5005 130.854 22.2525 130.406 22.2621C124.632 22.352 118.939 21.9674 113.149 22.0693C112.67 22.0763 113.346 22.795 112.577 22.8297C111.006 22.9061 109.02 22.8266 107.445 22.5667C106.68 22.4413 107.723 21.859 106.953 21.7451C105.134 21.4778 103.197 21.382 101.339 21.4479C100.551 21.4775 101.724 22.2291 100.693 22.211C94.5695 22.1133 88.5548 22.0328 82.3931 21.1474C81.4552 21.0137 80.5575 20.8652 79.6429 20.6966C79.1512 20.6069 78.7914 19.1205 77.7591 19.3466C77.6608 19.7487 77.6392 20.2269 77.5823 20.6593C67.3226 20.3482 57.1193 19.0623 46.9246 17.8484C46.4987 17.7996 47.1504 18.6506 46.3292 18.5606C43.0295 18.1989 39.9062 17.9717 36.7586 17.557C35.2637 17.3633 33.7613 17.1079 32.2435 16.7543C31.761 16.6429 32.1109 15.2986 30.6581 15.3981C30.401 15.4169 28.2226 15.4376 27.6415 15.6919C27.5622 15.7308 27.9098 16.3963 27.2111 16.363C23.1514 16.1585 18.9303 15.7 14.9349 15.0388C14.2932 14.9312 15.0264 14.2999 14.5704 14.2175C11.3166 13.6376 7.71837 13.9318 4.6733 13.1843C2.62289 12.6864 3.43971 11.5447 2.36759 10.3546C2.21758 10.1854 0.929522 10.1331 0.875695 9.46218C0.720504 7.76893 1.38926 5.92679 1.15141 4.12078C1.1099 3.72733 -0.752319 4.139 0.346113 3.20431C0.431573 3.13931 1.78214 2.84665 2.11237 2.53882C2.3502 2.32459 1.94508 1.63032 2.43148 1.36093C2.89911 1.09189 3.39771 1.68023 4.17901 1.37846C4.94702 1.07369 4.65943 0.280571 6.18016 0.257413ZM409.071 20.6277C407.903 19.9808 407.743 22.3745 409.001 21.7951C409.061 21.7642 409.131 20.6594 409.071 20.6277ZM549.905 14.3414C548.339 13.3543 547.366 14.9515 548.476 15.7177C549.581 16.4834 550.384 14.6404 549.905 14.3414ZM565.65 12.8661C563.842 12.1188 563.719 15.5212 565.585 14.7463C565.693 14.7024 565.759 12.9093 565.65 12.8661ZM7.53556 10.2449C7.51793 10.2118 6.59386 10.1331 6.56449 10.1635C6.03046 10.897 7.88996 11.0541 7.53556 10.2449ZM581.233 11.1456C580.663 10.7024 579.089 11.2908 579.797 11.8359C580.366 12.273 581.936 11.6952 581.233 11.1456ZM348.279 18.2457C348.261 18.21 347.586 18.1785 347.599 18.38C347.646 19.0291 348.585 18.8452 348.279 18.2457ZM607.836 10.8627C603.904 10.7356 601.512 7.93636 605.799 8.24902C606.575 8.3058 604.127 9.1438 605.115 9.39588C606.923 9.85514 608.124 8.09537 609.966 9.03837C610.301 9.21096 608.061 10.8761 607.829 10.8666C607.831 10.8653 607.833 10.864 607.836 10.8627ZM408.385 17.7574C408.362 17.7259 407.421 17.701 407.398 17.7325C406.892 18.4949 408.788 18.5455 408.385 17.7574ZM308.875 16.7553C308.822 16.6878 306.645 16.6216 306.576 16.6836C305.438 17.9241 309.838 18.0617 308.875 16.7553ZM471.224 14.7531C472.224 13.9454 473.44 13.8011 474.277 14.7232C473.284 14.7178 472.256 14.7559 471.224 14.7531Z" fill="#6C4DFC"/>
</svg>
