<svg width="90" height="91" viewBox="0 0 90 91" fill="none" xmlns="http://www.w3.org/2000/svg">
<g clip-path="url(#clip0_127_880)">
<path d="M28.875 53C37.7806 53 45 45.7806 45 36.875C45 27.9694 37.7806 20.75 28.875 20.75C19.9694 20.75 12.75 27.9694 12.75 36.875C12.75 45.7806 19.9694 53 28.875 53Z" fill="url(#paint0_linear_127_880)"/>
<path opacity="0.88" fill-rule="evenodd" clip-rule="evenodd" d="M32.2501 68C29.2956 67.9071 26.4717 66.761 24.2882 64.7685C22.1047 62.776 20.7056 60.0685 20.3434 57.1348C19.9812 54.2011 20.6798 51.2346 22.3132 48.7709C23.9465 46.3072 26.4069 44.5087 29.2501 43.7C29.3209 39.9906 30.6988 36.4253 33.1411 33.6324C35.5833 30.8395 38.9331 28.9984 42.5999 28.4336C46.2668 27.8688 50.0153 28.6165 53.1848 30.545C56.3543 32.4734 58.7413 35.4589 59.9251 38.975C60.8173 38.8256 61.7204 38.7504 62.6251 38.75C66.5039 38.75 70.2238 40.2909 72.9665 43.0336C75.7092 45.7763 77.2501 49.4962 77.2501 53.375C77.2501 57.2538 75.7092 60.9737 72.9665 63.7164C70.2238 66.4592 66.5039 68 62.6251 68H32.2501Z" fill="white"/>
</g>
<defs>
<linearGradient id="paint0_linear_127_880" x1="28.8829" y1="20.7436" x2="28.8829" y2="52.9936" gradientUnits="userSpaceOnUse">
<stop stop-color="#FFC700"/>
<stop offset="1" stop-color="#FFEA00"/>
</linearGradient>
<clipPath id="clip0_127_880">
<rect width="90" height="90" fill="white" transform="translate(0 0.5)"/>
</clipPath>
</defs>
</svg>
