<svg width="39" height="20" viewBox="0 0 39 20" fill="none" xmlns="http://www.w3.org/2000/svg">
<path d="M10 1.25C5.17125 1.25 1.25 5.17125 1.25 10C1.25 14.8287 5.17125 18.75 10 18.75C14.8287 18.75 18.75 14.8287 18.75 10C18.75 5.17125 14.8287 1.25 10 1.25ZM10 1.875C14.4913 1.875 18.125 5.50875 18.125 10C18.125 14.4913 14.4913 18.125 10 18.125C5.50875 18.125 1.875 14.4913 1.875 10C1.875 5.50875 5.50875 1.875 10 1.875ZM8.4325 5.62125C8.34984 5.62257 8.27106 5.65659 8.21343 5.71586C8.15579 5.77513 8.124 5.85483 8.125 5.9375V14.0625C8.125 14.1454 8.15792 14.2249 8.21653 14.2835C8.27513 14.3421 8.35462 14.375 8.4375 14.375C8.52038 14.375 8.59987 14.3421 8.65847 14.2835C8.71708 14.2249 8.75 14.1454 8.75 14.0625V9.06875L9.55188 10.2794C9.58085 10.3229 9.6203 10.3585 9.6666 10.3829C9.7129 10.4072 9.76457 10.4196 9.81687 10.4187C9.83085 10.4222 9.84505 10.4247 9.85938 10.4262L13.6438 10.7938C13.7175 10.8008 13.7914 10.7814 13.8521 10.7391C13.9129 10.6967 13.9567 10.6341 13.9756 10.5625L14.4606 8.75125C14.4797 8.67984 14.4728 8.60398 14.4412 8.53716C14.4096 8.47033 14.3554 8.41686 14.2881 8.38625L10.8275 6.81125C10.7809 6.79025 10.7298 6.78103 10.6788 6.78437C10.6574 6.78003 10.6356 6.77793 10.6138 6.77813C10.5749 6.7802 10.5367 6.78953 10.5013 6.80562L8.75 7.55875V5.9375C8.75051 5.89572 8.74263 5.85427 8.72684 5.81559C8.71105 5.77691 8.68766 5.74179 8.65806 5.7123C8.62846 5.68282 8.59324 5.65957 8.5545 5.64393C8.51576 5.62829 8.47427 5.62058 8.4325 5.62125ZM10.9044 7.53375L11.4819 7.79625L10.9181 9.9L10.2869 9.8375L10.9044 7.53438V7.53375ZM10.2406 7.59875L9.74625 9.44062L8.905 8.17188L10.2406 7.59875ZM12.0581 8.05938L12.6356 8.32187L12.1794 10.0231L11.5481 9.96187L12.0581 8.05938ZM13.2119 8.5825L13.7881 8.845L13.44 10.145L12.8088 10.0844L13.2119 8.5825Z" fill="#D59219"/>
<path d="M36.9716 4.09091V15H35.6932L29.7486 6.43466H29.642V15H28.321V4.09091H29.5994L35.5653 12.6776H35.6719V4.09091H36.9716Z" fill="#D59219"/>
</svg>
